<?xml version="1.0" encoding="UTF-8"?>
<svg viewBox="0 0 420.18655 459.63324" xmlns="http://www.w3.org/2000/svg" xmlns:xlink="http://www.w3.org/1999/xlink">
 <defs>
  <filter id="ac">
   <feGaussianBlur stdDeviation="1.074"/>
  </filter>
  <filter id="ae" x="-.0118" y="-.2341" width="1.0235" height="1.4683">
   <feGaussianBlur stdDeviation="1.171"/>
  </filter>
  <filter id="ad" x="-.0259" y="-.1657" width="1.0518" height="1.3313">
   <feGaussianBlur stdDeviation="1.718"/>
  </filter>
  <filter id="ab" x="-.0772" y="-.9985" width="1.1544" height="2.997">
   <feGaussianBlur stdDeviation="13.313"/>
  </filter>
  <linearGradient id="x" x2="0" y1="-649.39" y2="-654.89" gradientTransform="matrix(.27378 -.08197 .08197 .27378 351.99 -395.53)" gradientUnits="userSpaceOnUse" spreadMethod="reflect">
   <stop stop-color="#c4a000" offset="0"/>
   <stop stop-color="#fce94f" offset="1"/>
  </linearGradient>
  <linearGradient id="c">
   <stop stop-color="#babdb6" offset="0"/>
   <stop stop-color="#eeeeec" offset="1"/>
  </linearGradient>
  <linearGradient id="a">
   <stop stop-color="#888a85" offset="0"/>
   <stop stop-color="#d3d7cf" offset=".115"/>
   <stop stop-color="#babdb6" offset=".204"/>
   <stop stop-color="#888a85" offset=".445"/>
   <stop stop-color="#555753" offset="1"/>
  </linearGradient>
  <linearGradient id="aa" x1="364.73" x2="343.23" y1="579.74" y2="436.74" gradientUnits="userSpaceOnUse">
   <stop stop-color="#a40000" offset="0"/>
   <stop stop-color="#c00" offset="1"/>
  </linearGradient>
  <linearGradient id="z" x1="317.23" x2="409.23" y1="440.74" y2="725.74" gradientUnits="userSpaceOnUse">
   <stop stop-color="#fff" offset="0"/>
   <stop stop-color="#babdb6" offset="1"/>
  </linearGradient>
  <linearGradient id="y" x1="247.23" x2="278.23" y1="336.74" y2="699.74" gradientUnits="userSpaceOnUse">
   <stop stop-color="#888a85" offset="0"/>
   <stop stop-color="#d3d7cf" offset=".115"/>
   <stop stop-color="#babdb6" offset=".204"/>
   <stop stop-color="#888a85" offset=".433"/>
   <stop stop-color="#555753" offset="1"/>
  </linearGradient>
  <linearGradient id="w" x1="123.86" x2="123.74" y1="-652.08" y2="-643.81" gradientTransform="matrix(1.0479 0 0 1.4368 -93.794 289.94)" gradientUnits="userSpaceOnUse" xlink:href="#c" spreadMethod="reflect"/>
  <linearGradient id="v" x1="124.1" x2="124.45" y1="-660.6" y2="-643.99" gradientTransform="matrix(1.0479 0 0 1.4368 -8.5688 290.8)" gradientUnits="userSpaceOnUse" xlink:href="#c" spreadMethod="reflect"/>
  <linearGradient id="u" x1="75.971" x2="74.946" y1="-632.8" y2="-684.42" gradientUnits="userSpaceOnUse" xlink:href="#a"/>
  <linearGradient id="t" x1="95.971" x2="94.946" y1="-632.8" y2="-684.42" gradientUnits="userSpaceOnUse" xlink:href="#a"/>
  <linearGradient id="s" x1="115.97" x2="114.95" y1="-632.8" y2="-684.42" gradientUnits="userSpaceOnUse" xlink:href="#a"/>
  <linearGradient id="r" x1="135.97" x2="134.95" y1="-632.8" y2="-684.42" gradientUnits="userSpaceOnUse" xlink:href="#a"/>
  <linearGradient id="q" x1="131.97" x2="130.95" y1="-632.8" y2="-684.42" gradientUnits="userSpaceOnUse" xlink:href="#a"/>
  <linearGradient id="p" x1="111.97" x2="110.95" y1="-632.8" y2="-684.42" gradientUnits="userSpaceOnUse" xlink:href="#a"/>
  <linearGradient id="o" x1="91.971" x2="90.946" y1="-632.8" y2="-684.42" gradientUnits="userSpaceOnUse" xlink:href="#a"/>
  <linearGradient id="n" x1="87.971" x2="86.946" y1="-632.8" y2="-684.42" gradientUnits="userSpaceOnUse" xlink:href="#a"/>
  <linearGradient id="m" x1="107.97" x2="106.95" y1="-632.8" y2="-684.42" gradientUnits="userSpaceOnUse" xlink:href="#a"/>
  <linearGradient id="l" x1="127.97" x2="126.95" y1="-632.8" y2="-684.42" gradientUnits="userSpaceOnUse" xlink:href="#a"/>
  <linearGradient id="k" x1="147.97" x2="146.95" y1="-632.8" y2="-684.42" gradientUnits="userSpaceOnUse" xlink:href="#a"/>
  <linearGradient id="j" x1="143.97" x2="142.95" y1="-632.8" y2="-684.42" gradientUnits="userSpaceOnUse" xlink:href="#a"/>
  <linearGradient id="i" x1="123.97" x2="122.95" y1="-632.8" y2="-684.42" gradientUnits="userSpaceOnUse" xlink:href="#a"/>
  <linearGradient id="h" x1="103.97" x2="102.95" y1="-632.8" y2="-684.42" gradientUnits="userSpaceOnUse" xlink:href="#a"/>
  <linearGradient id="g" x1="83.971" x2="82.946" y1="-632.8" y2="-684.42" gradientUnits="userSpaceOnUse" xlink:href="#a"/>
  <linearGradient id="f" x1="79.971" x2="78.946" y1="-632.8" y2="-684.42" gradientUnits="userSpaceOnUse" xlink:href="#a"/>
  <linearGradient id="e" x1="99.971" x2="98.946" y1="-632.8" y2="-684.42" gradientUnits="userSpaceOnUse" xlink:href="#a"/>
  <linearGradient id="d" x1="119.97" x2="118.95" y1="-632.8" y2="-684.42" gradientUnits="userSpaceOnUse" xlink:href="#a"/>
  <linearGradient id="b" x1="139.97" x2="138.95" y1="-632.8" y2="-684.42" gradientUnits="userSpaceOnUse" xlink:href="#a"/>
 </defs>
 <g transform="translate(-161.95 -296.36)">
  <path transform="matrix(.7746 0 0 .79161 -70.572 1194.7)" d="m792-625.64a207 16 0 1 1 -414 0 207 16 0 1 1 414 0z" fill="#d3d7cf" fill-rule="evenodd" filter="url(#ab)"/>
  <path d="m292.02 327.74c-6.4416 0.065-23.103 8.0283-28.681 11.044-32.294 17.463-48.565 82.424-31.02 172.07 21.05 107.55 76.589 178.93 120.95 175.23 4.8024-0.4003 21.495-5.216 25.977-7.4254 36.805-18.142 36.502-92.073 20.354-171.78-16.044-79.188-58.237-153.86-101.31-169.66-5.8558-2.1472-0.8969-9.5432-6.2684-9.489z" fill="url(#y)"/>
  <path d="m299.42 328.1c-43.74 0.4416-69.67 71.623-49.094 176.75 23.328 119.19 89.018 193.96 134.91 171.34 36.805-18.142 48.523-95.608 32.375-175.31-16.044-79.188-58.237-153.86-101.31-169.66-5.8558-2.1472-11.504-3.1792-16.875-3.125z" fill="url(#z)"/>
  <path d="m384.22 676.18c-45.888 22.619-111.56-52.137-134.89-171.33-23.103-118.04 12.415-193.26 65.954-173.63 43.076 15.795 85.292 90.486 101.34 169.67 16.148 79.704 4.4071 157.14-32.398 175.28m-3.3272-16.649c33.963-15.086 45.159-85.102 30.304-158.51-14.767-72.966-53.529-140.61-92.68-153.62-47.684-15.85-78.115 52.542-57.586 157.17 20.706 105.54 78.492 173.37 119.96 154.95m-3.3278-16.652c-36.879 14.614-87.42-46.528-105.52-138.56-17.964-91.347 7.9304-153.09 49.719-140.66 35.045 10.425 70.442 71.292 83.825 137.5 13.457 66.567 2.8406 129.49-28.025 141.72m-3.313-16.578c27.791-9.7108 37.648-65.159 25.564-125.01-12.025-59.556-43.727-113.26-74.809-121.41-36.319-9.5182-57.954 45.094-42.366 124.18 15.689 79.603 59.086 133.6 91.611 122.24m-3.3189-16.607c-28.001 8.4926-64.849-38.601-78.135-105.87-13.213-66.899 4.6485-114.63 35.461-107.67 26.933 6.0878 55.017 52.943 65.571 105.28 10.6 52.562 1.5492 100.84-22.897 108.26m-3.3092-16.559c21.127-5.4528 29.167-46.169 20.026-91.553-9.1072-45.217-33.205-84.789-56.134-89.132-25.706-4.8685-39.999 35.502-28.987 91.145 11.063 55.898 41.39 95.658 65.096 89.54m-3.2996-16.511c-19.244 4.114-43.626-28.67-52.466-73.25-8.8077-44.417 2.353-77.737 22.918-74.609 18.736 2.8503 38.948 35.481 46.489 72.967 7.5635 37.601 0.5825 71.145-16.94 74.891m-3.3003-16.514c13.946-2.3735 19.629-28.305 13.62-58.22-5.9946-29.842-21.908-55.083-36.598-56.76-15.8-1.8041-23.984 23.985-17.22 58.034 6.783 34.143 25.193 59.501 40.198 56.947m-3.3127-16.516c-10.604 1.3502-23.57-16.94-28.291-40.661-4.7117-23.675 0.8801-42.277 11.883-41.444 10.448 0.7904 22.144 18.992 26.466 40.54 4.3301 21.586 0.0104 40.284-10.058 41.566m-3.2915-16.47c6.2185-0.5303 8.91-11.592 6.2388-24.928-2.6683-13.321-9.7285-24.119-16.087-24.351-6.561-0.2395-9.7079 10.798-6.8978 24.893 2.8133 14.112 10.329 24.933 16.746 24.385m-3.2871-16.448c-2.1172 0.0931-4.5914-3.5448-5.506-8.1247s0.0904-8.2943 2.2233-8.3015c2.1109-7e-3 4.5342 3.6281 5.4328 8.1209s-0.0549 8.2132-2.1501 8.3053" fill="#2e3436"/>
  <path d="m331.82 429.04c-4.522 0.0469-8.7423 2.0615-12.375 6.2813-13.079 15.193-13.169 56.798-0.1875 92.938 8.9755 24.988 24.444 44.586 37.688 47.781 3.6349 0.877 8.0759 0.2932 11.688-1.5625 16.609-8.534 20.022-52.772 7.0625-91.531-11.115-33.244-29.103-54.06-43.875-53.906zm6.4063 16.062c2.3635 0.0414 4.0063 0.6421 6.75 2.25 8.7649 5.1366 17.392 17.466 23.906 34.156 11.52 29.513 10.909 63.864-1.3125 74.906-2.1781 1.9677-4.5966 3.5938-5.375 3.5938s-2.0175 0.1854-2.75 0.4375-2.9989-0.1373-5.0625-0.875c-18.94-6.7704-35.834-44.094-35.781-79.062 0.0189-12.481 1.5478-20.339 5.25-26.656 3.7224-6.3518 6.0835-8.0835 11.719-8.625 1.0204-0.0981 1.8684-0.1388 2.6563-0.125zm2.4063 16.906c-3.3964-0.0226-6.4932 2.0561-8.875 6.8125-2.7251 5.442-3.2471 8.4835-3.2188 18.844 0.0564 20.655 9.2841 44.412 20.406 52.469 5.6133 4.0663 9.9628 3.8839 14.156-0.5625 4.1372-4.3868 5.5313-9.9371 5.5313-22.375 0-28.146-15.87-55.107-28-55.188zm4.0938 16c7.9592-0.0466 16.906 17.708 16.906 33.594 0 7.756-0.8585 11.108-3.5 13.75-2.2213 2.2213-6.702 2.0917-9.7188-0.2813-8.5577-6.7315-14.598-31.406-10.25-41.812 1.7841-4.27 2.9587-5.2289 6.5625-5.25zm3.1563 17.188c-0.2853 0.0193-0.5797 0.1054-0.875 0.2188-2.0804 0.7983-1.4629 8.3036 1 12.062 3.5492 5.4168 6.699 1.2514 4.6875-6.2188-1.0873-4.0378-2.8151-6.1978-4.8125-6.0625z" fill="url(#aa)"/>
  <g transform="matrix(.27378 -.08197 .08197 .27378 419.22 678.85)">
   <path d="m343-712.62c-57 19-87 54.5-87 54.5s47 49.5 87 54.5c29.903 3.7378 56.7-9.6049 72.312-24.188-6.3782-8.4351-10.156-18.922-10.156-30.312 0-11.381 3.787-21.881 10.156-30.312-15.613-14.583-43.723-33.717-72.312-24.188z" fill-rule="evenodd" stroke="#000"/>
   <path transform="matrix(3.3521 1.0037 -1.0037 3.3521 -1576.9 972.59)" d="m298.16-577.38-13.594 4.0313 0.5938 2.5 13.719-4.0625-0.7188-2.4688z" fill="url(#x)"/>
   <path d="m-16.469-664.16v9.8594l85.594 20.93c3.9618-8.8756 3.9943-18.23 4.0313-25.812 0-13.789-1.7906-25.001-4.0313-25.5v-0.4063z" fill="url(#w)"/>
   <path d="m66.812-684.62c-2.3127 0-4.1875 11.425-4.1875 25.531s1.8748 25.562 4.1875 25.562v1h87.531v-0.2813c2.2407-0.4987 4.0313-11.743 4.0313-25.531s-1.7906-25.001-4.0313-25.5v-0.4063h-86.844c-0.2231-0.2241-0.454-0.375-0.6875-0.375z" fill="url(#v)"/>
   <path d="m153.72-682.56c-2.9575 6.3776-4.7813 14.865-4.7813 24.188 0 9.3413 1.8444 17.806 4.8125 24.188 83.274-4.9738 166.81-9.516 250.25-14.188v-20c-82.315-4.415-170.02-9.6783-250.28-14.188z"/>
   <path d="m157-673.64v9.5l124.46-0.5z" fill="#fff" filter="url(#ae)" stroke="#000"/>
   <path d="m73.5236-683.7947c-.2925,0-.5402.0922-.7398.2158s-.3728.2736-.524.4623c-.3024.3775-.5795.8893-.8322,1.5412-.5054,1.3038-.9502,3.167-1.3254,5.4557-.7505,4.5775-1.2021,10.8799-1.2021,17.8467s.4516,13.2692 1.2021,17.8467c.3752,2.2887.82,4.152 1.3254,5.4557 .2527.6519.5298,1.1637.8322,1.5412 .1512.1887.3244.3387.524.4623s.4473.2466.7398.2466c.0665,0 .1231-.0209.1849-.0308v-.8014c-.0288.0259-.069.0779-.0925.0924-.0781.0484-.0998.0616-.0925.0616l-.0925-.0616c-.0781-.0484-.1906-.1614-.3082-.3082-.2353-.2937-.4983-.7333-.7398-1.3562-.4829-1.2459-.9224-3.093-1.2946-5.3632-.7444-4.5404-1.2021-10.8384-1.2021-17.785s.4577-13.2138 1.2021-17.7542c.3722-2.2702.8117-4.1482 1.2946-5.3941 .2415-.6229.5045-1.0625.7398-1.3562 .1177-.1469.2301-.2598.3082-.3082s.0998-.0308.0925-.0308 .0143-.0179.0925.0308c.0234.0145.0636.0692.0925.0924v-.7706c-.0628-.009-.1173-.0308-.1849-.0308z" fill="url(#u)" fill-rule="evenodd"/>
   <path d="m93.5236-683.7947c-.2925,0-.5402.0922-.7398.2158s-.3728.2736-.524.4623c-.3024.3775-.5795.8893-.8322,1.5412-.5054,1.3038-.9502,3.167-1.3254,5.4557-.7505,4.5775-1.2021,10.8799-1.2021,17.8467s.4516,13.2692 1.2021,17.8467c.3752,2.2887.82,4.152 1.3254,5.4557 .2527.6519.5298,1.1637.8322,1.5412 .1512.1887.3244.3387.524.4623s.4473.2466.7398.2466c.0665,0 .1231-.0209.1849-.0308v-.8014c-.0288.0259-.069.0779-.0925.0924-.0781.0484-.0998.0616-.0925.0616l-.0925-.0616c-.0781-.0484-.1906-.1614-.3082-.3082-.2353-.2937-.4983-.7333-.7398-1.3562-.4829-1.2459-.9224-3.093-1.2946-5.3632-.7444-4.5404-1.2021-10.8384-1.2021-17.785s.4577-13.2138 1.2021-17.7542c.3722-2.2702.8117-4.1482 1.2946-5.3941 .2415-.6229.5045-1.0625.7398-1.3562 .1177-.1469.2301-.2598.3082-.3082s.0998-.0308.0925-.0308 .0143-.0179.0925.0308c.0234.0145.0636.0692.0925.0924v-.7706c-.0628-.009-.1173-.0308-.1849-.0308z" fill="url(#t)" fill-rule="evenodd"/>
   <path d="m113.5236-683.7947c-.2925,0-.5402.0922-.7398.2158s-.3728.2736-.524.4623c-.3024.3775-.5795.8893-.8322,1.5412-.5054,1.3038-.9502,3.167-1.3254,5.4557-.7505,4.5775-1.2021,10.8799-1.2021,17.8467s.4516,13.2692 1.2021,17.8467c.3752,2.2887.82,4.152 1.3254,5.4557 .2527.6519.5298,1.1637.8322,1.5412 .1512.1887.3244.3387.524.4623s.4473.2466.7398.2466c.0666,0 .1231-.0209.1849-.0308v-.8014c-.0288.0259-.069.0779-.0925.0924-.0781.0484-.0998.0616-.0925.0616l-.0925-.0616c-.0781-.0484-.1906-.1614-.3082-.3082-.2353-.2937-.4983-.7333-.7398-1.3562-.4829-1.2459-.9224-3.093-1.2946-5.3632-.7444-4.5404-1.2021-10.8384-1.2021-17.785s.4577-13.2138 1.2021-17.7542c.3722-2.2702.8116-4.1482 1.2946-5.3941 .2415-.6229.5044-1.0625.7398-1.3562 .1177-.1469.2301-.2598.3082-.3082s.0998-.0308.0925-.0308 .0143-.0179.0925.0308c.0234.0145.0636.0692.0925.0924v-.7706c-.0628-.009-.1173-.0308-.1849-.0308z" fill="url(#s)" fill-rule="evenodd"/>
   <path d="m133.5236-683.7947c-.2925,0-.5402.0922-.7398.2158s-.3728.2736-.524.4623c-.3024.3775-.5795.8893-.8322,1.5412-.5054,1.3038-.9502,3.167-1.3254,5.4557-.7505,4.5775-1.2021,10.8799-1.2021,17.8467s.4516,13.2692 1.2021,17.8467c.3752,2.2887.82,4.152 1.3254,5.4557 .2527.6519.5298,1.1637.8322,1.5412 .1512.1887.3244.3387.524.4623s.4473.2466.7398.2466c.0666,0 .1231-.0209.1849-.0308v-.8014c-.0288.0259-.069.0779-.0925.0924-.0781.0484-.0998.0616-.0925.0616l-.0925-.0616c-.0781-.0484-.1906-.1614-.3082-.3082-.2353-.2937-.4983-.7333-.7398-1.3562-.4829-1.2459-.9224-3.093-1.2946-5.3632-.7444-4.5404-1.2021-10.8384-1.2021-17.785s.4577-13.2138 1.2021-17.7542c.3722-2.2702.8116-4.1482 1.2946-5.3941 .2415-.6229.5044-1.0625.7398-1.3562 .1177-.1469.2301-.2598.3082-.3082s.0998-.0308.0925-.0308 .0143-.0179.0925.0308c.0234.0145.0636.0692.0925.0924v-.7706c-.0628-.009-.1173-.0308-.1849-.0308z" fill="url(#r)" fill-rule="evenodd"/>
   <path d="m129.5236-683.7947c-.2925,0-.5402.0922-.7398.2158s-.3728.2736-.524.4623c-.3024.3775-.5795.8893-.8322,1.5412-.5054,1.3038-.9502,3.167-1.3254,5.4557-.7505,4.5775-1.2021,10.8799-1.2021,17.8467s.4516,13.2692 1.2021,17.8467c.3752,2.2887.82,4.152 1.3254,5.4557 .2527.6519.5298,1.1637.8322,1.5412 .1512.1887.3244.3387.524.4623s.4473.2466.7398.2466c.0666,0 .1231-.0209.1849-.0308v-.8014c-.0288.0259-.069.0779-.0925.0924-.0781.0484-.0998.0616-.0925.0616l-.0925-.0616c-.0781-.0484-.1906-.1614-.3082-.3082-.2353-.2937-.4983-.7333-.7398-1.3562-.4829-1.2459-.9224-3.093-1.2946-5.3632-.7444-4.5404-1.2021-10.8384-1.2021-17.785s.4577-13.2138 1.2021-17.7542c.3722-2.2702.8116-4.1482 1.2946-5.3941 .2415-.6229.5044-1.0625.7398-1.3562 .1177-.1469.2301-.2598.3082-.3082s.0998-.0308.0925-.0308 .0143-.0179.0925.0308c.0234.0145.0636.0692.0925.0924v-.7706c-.0628-.009-.1173-.0308-.1849-.0308z" fill="url(#q)" fill-rule="evenodd"/>
   <path d="m109.5236-683.7947c-.2925,0-.5402.0922-.7398.2158s-.3728.2736-.524.4623c-.3024.3775-.5795.8893-.8322,1.5412-.5054,1.3038-.9502,3.167-1.3254,5.4557-.7505,4.5775-1.2021,10.8799-1.2021,17.8467s.4516,13.2692 1.2021,17.8467c.3752,2.2887.82,4.152 1.3254,5.4557 .2527.6519.5298,1.1637.8322,1.5412 .1512.1887.3244.3387.524.4623s.4473.2466.7398.2466c.0666,0 .1231-.0209.1849-.0308v-.8014c-.0288.0259-.069.0779-.0925.0924-.0781.0484-.0998.0616-.0925.0616l-.0925-.0616c-.0781-.0484-.1906-.1614-.3082-.3082-.2353-.2937-.4983-.7333-.7398-1.3562-.4829-1.2459-.9224-3.093-1.2946-5.3632-.7444-4.5404-1.2021-10.8384-1.2021-17.785s.4577-13.2138 1.2021-17.7542c.3722-2.2702.8116-4.1482 1.2946-5.3941 .2415-.6229.5044-1.0625.7398-1.3562 .1177-.1469.2301-.2598.3082-.3082s.0998-.0308.0925-.0308 .0143-.0179.0925.0308c.0234.0145.0636.0692.0925.0924v-.7706c-.0628-.009-.1173-.0308-.1849-.0308z" fill="url(#p)" fill-rule="evenodd"/>
   <path d="m89.5236-683.7947c-.2925,0-.5402.0922-.7398.2158s-.3728.2736-.524.4623c-.3024.3775-.5795.8893-.8322,1.5412-.5054,1.3038-.9502,3.167-1.3254,5.4557-.7505,4.5775-1.2021,10.8799-1.2021,17.8467s.4516,13.2692 1.2021,17.8467c.3752,2.2887.82,4.152 1.3254,5.4557 .2527.6519.5298,1.1637.8322,1.5412 .1512.1887.3244.3387.524.4623s.4473.2466.7398.2466c.0666,0 .1231-.0209.1849-.0308v-.8014c-.0288.0259-.069.0779-.0925.0924-.0781.0484-.0998.0616-.0925.0616l-.0925-.0616c-.0781-.0484-.1906-.1614-.3082-.3082-.2353-.2937-.4983-.7333-.7398-1.3562-.4829-1.2459-.9224-3.093-1.2946-5.3632-.7444-4.5404-1.2021-10.8384-1.2021-17.785s.4577-13.2138 1.2021-17.7542c.3722-2.2702.8116-4.1482 1.2946-5.3941 .2415-.6229.5044-1.0625.7398-1.3562 .1177-.1469.2301-.2598.3082-.3082s.0998-.0308.0925-.0308 .0143-.0179.0925.0308c.0234.0145.0636.0692.0925.0924v-.7706c-.0628-.009-.1173-.0308-.1849-.0308z" fill="url(#o)" fill-rule="evenodd"/>
   <path d="m85.5236-683.7947c-.2925,0-.5402.0922-.7398.2158s-.3728.2736-.524.4623c-.3024.3775-.5795.8893-.8322,1.5412-.5054,1.3038-.9502,3.167-1.3254,5.4557-.7505,4.5775-1.2021,10.8799-1.2021,17.8467s.4516,13.2692 1.2021,17.8467c.3752,2.2887.82,4.152 1.3254,5.4557 .2527.6519.5298,1.1637.8322,1.5412 .1512.1887.3244.3387.524.4623s.4473.2466.7398.2466c.0666,0 .1231-.0209.1849-.0308v-.8014c-.0288.0259-.069.0779-.0925.0924-.0781.0484-.0998.0616-.0925.0616l-.0925-.0616c-.0781-.0484-.1906-.1614-.3082-.3082-.2353-.2937-.4983-.7333-.7398-1.3562-.4829-1.2459-.9224-3.093-1.2946-5.3632-.7444-4.5404-1.2021-10.8384-1.2021-17.785s.4577-13.2138 1.2021-17.7542c.3722-2.2702.8116-4.1482 1.2946-5.3941 .2415-.6229.5044-1.0625.7398-1.3562 .1177-.1469.2301-.2598.3082-.3082s.0998-.0308.0925-.0308 .0143-.0179.0925.0308c.0234.0145.0636.0692.0925.0924v-.7706c-.0628-.009-.1173-.0308-.1849-.0308z" fill="url(#n)" fill-rule="evenodd"/>
   <path d="m105.5236-683.7947c-.2925,0-.5402.0922-.7398.2158s-.3728.2736-.524.4623c-.3024.3775-.5795.8893-.8322,1.5412-.5054,1.3038-.9502,3.167-1.3254,5.4557-.7505,4.5775-1.2021,10.8799-1.2021,17.8467s.4516,13.2692 1.2021,17.8467c.3752,2.2887.82,4.152 1.3254,5.4557 .2527.6519.5298,1.1637.8322,1.5412 .1512.1887.3244.3387.524.4623s.4473.2466.7398.2466c.0666,0 .1231-.0209.1849-.0308v-.8014c-.0288.0259-.069.0779-.0925.0924-.0781.0484-.0998.0616-.0925.0616l-.0925-.0616c-.0781-.0484-.1906-.1614-.3082-.3082-.2353-.2937-.4983-.7333-.7398-1.3562-.4829-1.2459-.9224-3.093-1.2946-5.3632-.7444-4.5404-1.2021-10.8384-1.2021-17.785s.4577-13.2138 1.2021-17.7542c.3722-2.2702.8116-4.1482 1.2946-5.3941 .2415-.6229.5044-1.0625.7398-1.3562 .1177-.1469.2301-.2598.3082-.3082s.0998-.0308.0925-.0308 .0143-.0179.0925.0308c.0234.0145.0636.0692.0925.0924v-.7706c-.0628-.009-.1173-.0308-.1849-.0308z" fill="url(#m)" fill-rule="evenodd"/>
   <path d="m125.5236-683.7947c-.2925,0-.5402.0922-.7398.2158s-.3728.2736-.524.4623c-.3024.3775-.5795.8893-.8322,1.5412-.5054,1.3038-.9502,3.167-1.3254,5.4557-.7505,4.5775-1.2021,10.8799-1.2021,17.8467s.4516,13.2692 1.2021,17.8467c.3752,2.2887.82,4.152 1.3254,5.4557 .2527.6519.5298,1.1637.8322,1.5412 .1512.1887.3244.3387.524.4623s.4473.2466.7398.2466c.0666,0 .1231-.0209.1849-.0308v-.8014c-.0288.0259-.069.0779-.0925.0924-.0781.0484-.0998.0616-.0925.0616l-.0925-.0616c-.0781-.0484-.1906-.1614-.3082-.3082-.2353-.2937-.4983-.7333-.7398-1.3562-.4829-1.2459-.9224-3.093-1.2946-5.3632-.7444-4.5404-1.2021-10.8384-1.2021-17.785s.4577-13.2138 1.2021-17.7542c.3722-2.2702.8116-4.1482 1.2946-5.3941 .2415-.6229.5044-1.0625.7398-1.3562 .1177-.1469.2301-.2598.3082-.3082s.0998-.0308.0925-.0308 .0143-.0179.0925.0308c.0234.0145.0636.0692.0925.0924v-.7706c-.0628-.009-.1173-.0308-.1849-.0308z" fill="url(#l)" fill-rule="evenodd"/>
   <path d="m145.5236-683.7947c-.2925,0-.5402.0922-.7398.2158s-.3728.2736-.524.4623c-.3024.3775-.5795.8893-.8322,1.5412-.5054,1.3038-.9502,3.167-1.3254,5.4557-.7505,4.5775-1.2021,10.8799-1.2021,17.8467s.4516,13.2692 1.2021,17.8467c.3752,2.2887.82,4.152 1.3254,5.4557 .2527.6519.5298,1.1637.8322,1.5412 .1512.1887.3244.3387.524.4623s.4473.2466.7398.2466c.0666,0 .1231-.0209.1849-.0308v-.8014c-.0288.0259-.069.0779-.0925.0924-.0781.0484-.0998.0616-.0925.0616l-.0925-.0616c-.0781-.0484-.1906-.1614-.3082-.3082-.2353-.2937-.4983-.7333-.7398-1.3562-.4829-1.2459-.9224-3.093-1.2946-5.3632-.7444-4.5404-1.2021-10.8384-1.2021-17.785s.4577-13.2138 1.2021-17.7542c.3722-2.2702.8116-4.1482 1.2946-5.3941 .2415-.6229.5044-1.0625.7398-1.3562 .1177-.1469.2301-.2598.3082-.3082s.0998-.0308.0925-.0308 .0143-.0179.0925.0308c.0234.0145.0636.0692.0925.0924v-.7706c-.0628-.009-.1173-.0308-.1849-.0308z" fill="url(#k)" fill-rule="evenodd"/>
   <path d="m141.5236-683.7947c-.2925,0-.5402.0922-.7398.2158s-.3728.2736-.524.4623c-.3024.3775-.5795.8893-.8322,1.5412-.5054,1.3038-.9502,3.167-1.3254,5.4557-.7505,4.5775-1.2021,10.8799-1.2021,17.8467s.4516,13.2692 1.2021,17.8467c.3752,2.2887.82,4.152 1.3254,5.4557 .2527.6519.5298,1.1637.8322,1.5412 .1512.1887.3244.3387.524.4623s.4473.2466.7398.2466c.0666,0 .1231-.0209.1849-.0308v-.8014c-.0288.0259-.069.0779-.0925.0924-.0781.0484-.0998.0616-.0925.0616l-.0925-.0616c-.0781-.0484-.1906-.1614-.3082-.3082-.2353-.2937-.4983-.7333-.7398-1.3562-.4829-1.2459-.9224-3.093-1.2946-5.3632-.7444-4.5404-1.2021-10.8384-1.2021-17.785s.4577-13.2138 1.2021-17.7542c.3722-2.2702.8116-4.1482 1.2946-5.3941 .2415-.6229.5044-1.0625.7398-1.3562 .1177-.1469.2301-.2598.3082-.3082s.0998-.0308.0925-.0308 .0143-.0179.0925.0308c.0234.0145.0636.0692.0925.0924v-.7706c-.0628-.009-.1173-.0308-.1849-.0308z" fill="url(#j)" fill-rule="evenodd"/>
   <path d="m121.5236-683.7947c-.2925,0-.5402.0922-.7398.2158s-.3728.2736-.524.4623c-.3024.3775-.5795.8893-.8322,1.5412-.5054,1.3038-.9502,3.167-1.3254,5.4557-.7505,4.5775-1.2021,10.8799-1.2021,17.8467s.4516,13.2692 1.2021,17.8467c.3752,2.2887.82,4.152 1.3254,5.4557 .2527.6519.5298,1.1637.8322,1.5412 .1512.1887.3244.3387.524.4623s.4473.2466.7398.2466c.0666,0 .1231-.0209.1849-.0308v-.8014c-.0288.0259-.069.0779-.0925.0924-.0781.0484-.0998.0616-.0925.0616l-.0925-.0616c-.0781-.0484-.1906-.1614-.3082-.3082-.2353-.2937-.4983-.7333-.7398-1.3562-.4829-1.2459-.9224-3.093-1.2946-5.3632-.7444-4.5404-1.2021-10.8384-1.2021-17.785s.4577-13.2138 1.2021-17.7542c.3722-2.2702.8116-4.1482 1.2946-5.3941 .2415-.6229.5044-1.0625.7398-1.3562 .1177-.1469.2301-.2598.3082-.3082s.0998-.0308.0925-.0308 .0143-.0179.0925.0308c.0234.0145.0636.0692.0925.0924v-.7706c-.0628-.009-.1173-.0308-.1849-.0308z" fill="url(#i)" fill-rule="evenodd"/>
   <path d="m101.5236-683.7947c-.2925,0-.5402.0922-.7398.2158s-.3728.2736-.524.4623c-.3024.3775-.5795.8893-.8322,1.5412-.5054,1.3038-.9502,3.167-1.3254,5.4557-.7505,4.5775-1.2021,10.8799-1.2021,17.8467s.4516,13.2692 1.2021,17.8467c.3752,2.2887.82,4.152 1.3254,5.4557 .2527.6519.5298,1.1637.8322,1.5412 .1512.1887.3244.3387.524.4623s.4473.2466.7398.2466c.0666,0 .1231-.0209.1849-.0308v-.8014c-.0288.0259-.069.0779-.0925.0924-.0781.0484-.0998.0616-.0925.0616l-.0925-.0616c-.0781-.0484-.1906-.1614-.3082-.3082-.2353-.2937-.4983-.7333-.7398-1.3562-.4829-1.2459-.9224-3.093-1.2946-5.3632-.7444-4.5404-1.2021-10.8384-1.2021-17.785s.4577-13.2138 1.2021-17.7542c.3722-2.2702.8116-4.1482 1.2946-5.3941 .2415-.6229.5044-1.0625.7398-1.3562 .1177-.1469.2301-.2598.3082-.3082s.0998-.0308.0925-.0308 .0143-.0179.0925.0308c.0234.0145.0636.0692.0925.0924v-.7706c-.0628-.009-.1173-.0308-.1849-.0308z" fill="url(#h)" fill-rule="evenodd"/>
   <path d="m81.5236-683.7947c-.2925,0-.5402.0922-.7398.2158s-.3728.2736-.524.4623c-.3024.3775-.5795.8893-.8322,1.5412-.5054,1.3038-.9502,3.167-1.3254,5.4557-.7505,4.5775-1.2021,10.8799-1.2021,17.8467s.4516,13.2692 1.2021,17.8467c.3752,2.2887.82,4.152 1.3254,5.4557 .2527.6519.5298,1.1637.8322,1.5412 .1512.1887.3244.3387.524.4623s.4473.2466.7398.2466c.0666,0 .1231-.0209.1849-.0308v-.8014c-.0288.0259-.069.0779-.0925.0924-.0781.0484-.0998.0616-.0925.0616l-.0925-.0616c-.0781-.0484-.1906-.1614-.3082-.3082-.2353-.2937-.4983-.7333-.7398-1.3562-.4829-1.2459-.9224-3.093-1.2946-5.3632-.7444-4.5404-1.2021-10.8384-1.2021-17.785s.4577-13.2138 1.2021-17.7542c.3722-2.2702.8116-4.1482 1.2946-5.3941 .2415-.6229.5044-1.0625.7398-1.3562 .1177-.1469.2301-.2598.3082-.3082s.0998-.0308.0925-.0308 .0143-.0179.0925.0308c.0234.0145.0636.0692.0925.0924v-.7706c-.0628-.009-.1173-.0308-.1849-.0308z" fill="url(#g)" fill-rule="evenodd"/>
   <path d="m77.5236-683.7947c-.2925,0-.5402.0922-.7398.2158s-.3728.2736-.524.4623c-.3024.3775-.5795.8893-.8322,1.5412-.5054,1.3038-.9502,3.167-1.3254,5.4557-.7505,4.5775-1.2021,10.8799-1.2021,17.8467s.4516,13.2692 1.2021,17.8467c.3752,2.2887.82,4.152 1.3254,5.4557 .2527.6519.5298,1.1637.8322,1.5412 .1512.1887.3244.3387.524.4623s.4473.2466.7398.2466c.0666,0 .1231-.0209.1849-.0308v-.8014c-.0288.0259-.069.0779-.0925.0924-.0781.0484-.0998.0616-.0925.0616l-.0925-.0616c-.0781-.0484-.1906-.1614-.3082-.3082-.2353-.2937-.4983-.7333-.7398-1.3562-.4829-1.2459-.9224-3.093-1.2946-5.3632-.7444-4.5404-1.2021-10.8384-1.2021-17.785s.4577-13.2138 1.2021-17.7542c.3722-2.2702.8116-4.1482 1.2946-5.3941 .2415-.6229.5044-1.0625.7398-1.3562 .1177-.1469.2301-.2598.3082-.3082s.0998-.0308.0925-.0308 .0143-.0179.0925.0308c.0234.0145.0636.0692.0925.0924v-.7706c-.0628-.009-.1173-.0308-.1849-.0308z" fill="url(#f)" fill-rule="evenodd"/>
   <path d="m97.5236-683.7947c-.2925,0-.5402.0922-.7398.2158s-.3728.2736-.524.4623c-.3024.3775-.5795.8893-.8322,1.5412-.5054,1.3038-.9502,3.167-1.3254,5.4557-.7505,4.5775-1.2021,10.8799-1.2021,17.8467s.4516,13.2692 1.2021,17.8467c.3752,2.2887.82,4.152 1.3254,5.4557 .2527.6519.5298,1.1637.8322,1.5412 .1512.1887.3244.3387.524.4623s.4473.2466.7398.2466c.0666,0 .1231-.0209.1849-.0308v-.8014c-.0288.0259-.069.0779-.0925.0924-.0781.0484-.0998.0616-.0925.0616l-.0925-.0616c-.0781-.0484-.1906-.1614-.3082-.3082-.2353-.2937-.4983-.7333-.7398-1.3562-.4829-1.2459-.9224-3.093-1.2946-5.3632-.7444-4.5404-1.2021-10.8384-1.2021-17.785s.4577-13.2138 1.2021-17.7542c.3722-2.2702.8116-4.1482 1.2946-5.3941 .2415-.6229.5044-1.0625.7398-1.3562 .1177-.1469.2301-.2598.3082-.3082s.0998-.0308.0925-.0308 .0143-.0179.0925.0308c.0234.0145.0636.0692.0925.0924v-.7706c-.0628-.009-.1173-.0308-.1849-.0308z" fill="url(#e)" fill-rule="evenodd"/>
   <path d="m117.5236-683.7947c-.2925,0-.5402.0922-.7398.2158s-.3728.2736-.524.4623c-.3024.3775-.5795.8893-.8322,1.5412-.5054,1.3038-.9502,3.167-1.3254,5.4557-.7505,4.5775-1.2021,10.8799-1.2021,17.8467s.4516,13.2692 1.2021,17.8467c.3752,2.2887.82,4.152 1.3254,5.4557 .2527.6519.5298,1.1637.8322,1.5412 .1512.1887.3244.3387.524.4623s.4473.2466.7398.2466c.0666,0 .1231-.0209.1849-.0308v-.8014c-.0288.0259-.069.0779-.0925.0924-.0781.0484-.0998.0616-.0925.0616l-.0925-.0616c-.0781-.0484-.1906-.1614-.3082-.3082-.2353-.2937-.4983-.7333-.7398-1.3562-.4829-1.2459-.9224-3.093-1.2946-5.3632-.7444-4.5404-1.2021-10.8384-1.2021-17.785s.4577-13.2138 1.2021-17.7542c.3722-2.2702.8116-4.1482 1.2946-5.3941 .2415-.6229.5044-1.0625.7398-1.3562 .1177-.1469.2301-.2598.3082-.3082s.0998-.0308.0925-.0308 .0143-.0179.0925.0308c.0234.0145.0636.0692.0925.0924v-.7706c-.0628-.009-.1173-.0308-.1849-.0308z" fill="url(#d)" fill-rule="evenodd"/>
   <path d="m137.5236-683.7947c-.2925,0-.5402.0922-.7398.2158s-.3728.2736-.524.4623c-.3024.3775-.5795.8893-.8322,1.5412-.5054,1.3038-.9502,3.167-1.3254,5.4557-.7505,4.5775-1.2021,10.8799-1.2021,17.8467s.4516,13.2692 1.2021,17.8467c.3752,2.2887.82,4.152 1.3254,5.4557 .2527.6519.5298,1.1637.8322,1.5412 .1512.1887.3244.3387.524.4623s.4473.2466.7398.2466c.0666,0 .1231-.0209.1849-.0308v-.8014c-.0288.0259-.069.0779-.0925.0924-.0781.0484-.0998.0616-.0925.0616l-.0925-.0616c-.0781-.0484-.1906-.1614-.3082-.3082-.2353-.2937-.4983-.7333-.7398-1.3562-.4829-1.2459-.9224-3.093-1.2946-5.3632-.7444-4.5404-1.2021-10.8384-1.2021-17.785s.4577-13.2138 1.2021-17.7542c.3722-2.2702.8116-4.1482 1.2946-5.3941 .2415-.6229.5044-1.0625.7398-1.3562 .1177-.1469.2301-.2598.3082-.3082s.0998-.0308.0925-.0308 .0143-.0179.0925.0308c.0234.0145.0636.0692.0925.0924v-.7706c-.0628-.009-.1173-.0308-.1849-.0308z" fill="url(#b)" fill-rule="evenodd"/>
   <path d="m137.5236-683.7947c-.2925,0-.5402.0922-.7398.2158s-.3728.2736-.524.4623c-.3024.3775-.5795.8893-.8322,1.5412-.5054,1.3038-.9502,3.167-1.3254,5.4557-.7505,4.5775-1.2021,10.8799-1.2021,17.8467s.4516,13.2692 1.2021,17.8467c.3752,2.2887.82,4.152 1.3254,5.4557 .2527.6519.5298,1.1637.8322,1.5412 .1512.1887.3244.3387.524.4623s.4473.2466.7398.2466c.0666,0 .1231-.0209.1849-.0308v-.8014c-.0288.0259-.069.0779-.0925.0924-.0781.0484-.0998.0616-.0925.0616l-.0925-.0616c-.0781-.0484-.1906-.1614-.3082-.3082-.2353-.2937-.4983-.7333-.7398-1.3562-.4829-1.2459-.9224-3.093-1.2946-5.3632-.7444-4.5404-1.2021-10.8384-1.2021-17.785s.4577-13.2138 1.2021-17.7542c.3722-2.2702.8116-4.1482 1.2946-5.3941 .2415-.6229.5044-1.0625.7398-1.3562 .1177-.1469.2301-.2598.3082-.3082s.0998-.0308.0925-.0308 .0143-.0179.0925.0308c.0234.0145.0636.0692.0925.0924v-.7706c-.0628-.009-.1173-.0308-.1849-.0308z" fill="url(#b)" fill-rule="evenodd"/>
   <path d="m262.37-661.12c-2.3374 1.0018-3.8266 1.6973-3.8266 1.6973s46.412 20.546 85.912 22.62c29.529 1.5502 55.991-3.9816 71.408-10.029-6.2985-3.4982-10.029-7.8668-10.029-12.591 0-0.5797 0.0436-1.1295 0.1543-1.6973h-143.62z" fill-rule="evenodd" stroke="#000" stroke-width=".6399"/>
   <path d="m270.05-660.86s41.25 19.431 81.25 21.531c29.903 1.5698 54.932-4.3855 70.545-10.51-0.8687-0.4825 0.0996-0.6326-0.6697-1.1465-18.055 4.704-41.992 7.9558-67.938 6.5938-30.07-1.5786-61.036-8.7438-81.02-16.109z" fill="#fff" fill-rule="evenodd" filter="url(#ad)"/>
  </g>
  <path d="m353.1346,503.7558-1.25,2.25 8.0625,4-.0312.0937 18.5938,15.625c.0267.1219.0509.1822.125.2188l-.125.2813 22.4375,11.0938 .0312-.0937c.119.0291.2719-.0956.4688-.25 6.9549,2.9332 13.9151,5.9147 20.875,8.875l-1.2188-13.5c-4.521-2.5651-9.1795-5.2076-13.5625-7.6875-.001-.2335-.0334-.4263-.125-.5l.0625-.0937-21.6563-10.7188c-.0227-.0789-.0791-.1817-.125-.2188l.0312-.0937-.5938-.125c-.0139-.0139-.0147-.0226-.0312-.0312-.0457-.0226-.0953-.0433-.1563-.0312l-23.7813-5.25-.0625.0937-7.9688-3.9375z" fill-rule="evenodd" filter="url(#ac)" opacity=".504"/>
 </g>
</svg>
